<svg xmlns="http://www.w3.org/2000/svg" version="1.1" xmlns:xlink="http://www.w3.org/1999/xlink" xmlns:svgjs="http://svgjs.dev/svgjs" width="1500" height="1500" viewBox="0 0 1500 1500"><rect width="1500" height="1500" fill="#ffffff"></rect><g transform="matrix(0.6666666666666666,0,0,0.6666666666666666,249.39393939393938,514.4890672769349)"><svg viewBox="0 0 396 187" data-background-color="#efefef" preserveAspectRatio="xMidYMid meet" height="708" width="1500" xmlns="http://www.w3.org/2000/svg" xmlns:xlink="http://www.w3.org/1999/xlink"><g id="tight-bounds" transform="matrix(1,0,0,1,0.2400000000000091,-0.19376182370089623)"><svg viewBox="0 0 395.52 187.3875236474018" height="187.3875236474018" width="395.52"><g><svg viewBox="0 0 395.52 187.3875236474018" height="187.3875236474018" width="395.52"><g><svg viewBox="0 0 395.52 187.3875236474018" height="187.3875236474018" width="395.52"><g transform="matrix(1,0,0,1,0,136.3831069882231)"><svg viewBox="0 0 395.52 51.004416659178695" height="51.004416659178695" width="395.52"><g id="textblocktransform"><svg viewBox="0 0 395.52 51.004416659178695" height="51.004416659178695" width="395.52" id="textblock"><g><svg viewBox="0 0 395.52 27.50934517203108" height="27.50934517203108" width="395.52"><g transform="matrix(1,0,0,1,0,0)"><svg width="395.52" viewBox="2.5 -37 540.55 37.6" height="27.50934517203108" data-palette-color="#d94e28"><path d="M16.45 0.6L16.45 0.6Q12.4 0.6 9.25-1.5 6.1-3.6 4.3-7.48 2.5-11.35 2.5-16.6L2.5-16.6Q2.5-22.2 4.4-26.48 6.3-30.75 9.88-33.18 13.45-35.6 18.5-35.6L18.5-35.6Q21.75-35.6 24.3-34.8 26.85-34 29.1-32.75L29.1-32.75 27.35-28.8Q25.25-29.95 23.08-30.7 20.9-31.45 18.25-31.45L18.25-31.45Q15.1-31.45 12.65-29.78 10.2-28.1 8.78-24.85 7.35-21.6 7.35-16.9L7.35-16.9Q7.35-12.7 8.65-9.73 9.95-6.75 12.25-5.15 14.55-3.55 17.55-3.55L17.55-3.55Q20.35-3.55 22.53-4.73 24.7-5.9 25.95-7.15L25.95-7.15 25.95-14.8 18.7-14.8 18.7-18.55 30.45-18.55 30.45 0 26.25 0 26.25-3.5Q24.5-1.95 22-0.68 19.5 0.6 16.45 0.6ZM42.2 0L37.7 0 37.7-26 42.05-26 42.05-20.35Q42.7-22 43.8-23.43 44.9-24.85 46.55-25.73 48.2-26.6 50.4-26.6L50.4-26.6Q51.15-26.6 51.9-26.53 52.65-26.45 53.15-26.3L53.15-26.3 51.8-21.65Q50.85-22.05 49.55-22.05L49.55-22.05Q47.7-22.05 46.02-21 44.35-19.95 43.27-17.75 42.2-15.55 42.2-12.15L42.2-12.15 42.2 0ZM66.55 0.6L66.55 0.6Q60.95 0.6 57.67-2.98 54.4-6.55 54.4-13L54.4-13Q54.4-16.9 55.87-19.98 57.35-23.05 60-24.83 62.65-26.6 66.15-26.6L66.15-26.6Q69.9-26.6 72.37-24.98 74.85-23.35 76.1-20.6 77.35-17.85 77.35-14.55L77.35-14.55Q77.35-12.8 77.2-11.15L77.2-11.15 59-11.15Q59.45-7.5 61.55-5.45 63.65-3.4 67.1-3.4L67.1-3.4Q69.35-3.4 71.15-3.88 72.95-4.35 74.6-5.1L74.6-5.1 75.65-1.25Q73.85-0.45 71.6 0.08 69.35 0.6 66.55 0.6ZM58.95-14.8L58.95-14.8 73.2-14.8Q73.2-18.6 71.3-20.65 69.4-22.7 66.05-22.7L66.05-22.7Q63.15-22.7 61.25-20.68 59.35-18.65 58.95-14.8ZM93.29 0.6L93.29 0.6Q90.04 0.6 87.39-1.05 84.74-2.7 83.17-5.73 81.59-8.75 81.59-12.85L81.59-12.85Q81.59-16.75 83.17-19.85 84.74-22.95 87.52-24.78 90.29-26.6 93.89-26.6L93.89-26.6Q96.14-26.6 97.97-25.83 99.79-25.05 101.14-23.9L101.14-23.9 101.14-26 105.24-26 105.24-6.3Q105.24-4.4 106.17-3.83 107.09-3.25 108.19-3.25L108.19-3.25 107.24 0.25Q102.44 0.25 101.44-3.65L101.44-3.65Q100.29-2.05 98.32-0.73 96.34 0.6 93.29 0.6ZM94.29-3.4L94.29-3.4Q96.19-3.4 97.89-4.33 99.59-5.25 100.74-6.65L100.74-6.65 100.74-20.6Q99.39-21.55 97.77-22.13 96.14-22.7 94.34-22.7L94.34-22.7Q91.94-22.7 90.12-21.48 88.29-20.25 87.24-18.07 86.19-15.9 86.19-13L86.19-13Q86.19-10.2 87.24-8.03 88.29-5.85 90.14-4.63 91.99-3.4 94.29-3.4ZM123.29 0.6L123.29 0.6Q119.54 0.6 117.37-1.88 115.19-4.35 115.19-8.95L115.19-8.95 115.19-21.15 110.69-21.15 110.69-25.05 115.29-25.05 116.24-33.25 119.69-33.25 119.69-25.05 126.89-25.05 126.89-21.15 119.69-21.15 119.69-8.6Q119.69-5.7 120.92-4.55 122.14-3.4 123.84-3.4L123.84-3.4Q125.09-3.4 126.22-3.8 127.34-4.2 128.29-4.75L128.29-4.75 129.54-1.15Q128.54-0.55 126.84 0.03 125.14 0.6 123.29 0.6ZM174.39-1.5L169.94 0.6 165.59-8.9Q163.94-12.45 161.44-13.95 158.94-15.45 155.04-15.45L155.04-15.45 154.29-15.45 154.29 0 149.54 0 149.54-34.9Q152.19-35.15 154.61-35.27 157.04-35.4 159.79-35.4L159.79-35.4Q166.19-35.4 169.41-32.8 172.64-30.2 172.64-26.1L172.64-26.1Q172.64-22.45 170.46-20.23 168.29-18 164.19-16.9L164.19-16.9Q165.54-16.3 166.59-15.48 167.64-14.65 168.61-13.28 169.59-11.9 170.59-9.7L170.59-9.7 174.39-1.5ZM154.29-31.2L154.29-19.45 159.79-19.45Q163.39-19.45 165.64-21.05 167.89-22.65 167.89-25.65L167.89-25.65Q167.89-28.15 165.79-29.78 163.69-31.4 159.79-31.4L159.79-31.4Q158.09-31.4 156.74-31.35 155.39-31.3 154.29-31.2L154.29-31.2ZM190.28 0.6L190.28 0.6Q184.68 0.6 181.41-2.98 178.13-6.55 178.13-13L178.13-13Q178.13-16.9 179.61-19.98 181.08-23.05 183.73-24.83 186.38-26.6 189.88-26.6L189.88-26.6Q193.63-26.6 196.11-24.98 198.58-23.35 199.83-20.6 201.08-17.85 201.08-14.55L201.08-14.55Q201.08-12.8 200.93-11.15L200.93-11.15 182.73-11.15Q183.18-7.5 185.28-5.45 187.38-3.4 190.83-3.4L190.83-3.4Q193.08-3.4 194.88-3.88 196.68-4.35 198.33-5.1L198.33-5.1 199.38-1.25Q197.58-0.45 195.33 0.08 193.08 0.6 190.28 0.6ZM182.68-14.8L182.68-14.8 196.93-14.8Q196.93-18.6 195.03-20.65 193.13-22.7 189.78-22.7L189.78-22.7Q186.88-22.7 184.98-20.68 183.08-18.65 182.68-14.8ZM217.03 0.6L217.03 0.6Q213.78 0.6 211.13-1.05 208.48-2.7 206.91-5.73 205.33-8.75 205.33-12.85L205.33-12.85Q205.33-16.75 206.91-19.85 208.48-22.95 211.26-24.78 214.03-26.6 217.63-26.6L217.63-26.6Q219.88-26.6 221.71-25.83 223.53-25.05 224.88-23.9L224.88-23.9 224.88-26 228.98-26 228.98-6.3Q228.98-4.4 229.91-3.83 230.83-3.25 231.93-3.25L231.93-3.25 230.98 0.25Q226.18 0.25 225.18-3.65L225.18-3.65Q224.03-2.05 222.06-0.73 220.08 0.6 217.03 0.6ZM218.03-3.4L218.03-3.4Q219.93-3.4 221.63-4.33 223.33-5.25 224.48-6.65L224.48-6.65 224.48-20.6Q223.13-21.55 221.51-22.13 219.88-22.7 218.08-22.7L218.08-22.7Q215.68-22.7 213.86-21.48 212.03-20.25 210.98-18.07 209.93-15.9 209.93-13L209.93-13Q209.93-10.2 210.98-8.03 212.03-5.85 213.88-4.63 215.73-3.4 218.03-3.4ZM247.28 0.6L247.28 0.6Q244.08 0.6 241.43-1.05 238.78-2.7 237.23-5.73 235.68-8.75 235.68-12.85L235.68-12.85Q235.68-16.8 237.25-19.9 238.83-23 241.45-24.8 244.08-26.6 247.23-26.6L247.23-26.6Q249.83-26.6 251.7-25.55 253.58-24.5 254.63-23.4L254.63-23.4 254.63-37 259.13-37 259.13-6.3Q259.13-4.4 260.05-3.83 260.98-3.25 262.08-3.25L262.08-3.25 261.13 0.25Q256.38 0.25 255.33-3.55L255.33-3.55Q254.23-2 252.25-0.7 250.28 0.6 247.28 0.6ZM248.28-3.4L248.28-3.4Q250.13-3.4 251.8-4.28 253.48-5.15 254.63-6.55L254.63-6.55 254.63-19.45Q253.68-20.65 251.98-21.68 250.28-22.7 248.23-22.7L248.23-22.7Q245.83-22.7 244.03-21.4 242.23-20.1 241.25-17.93 240.28-15.75 240.28-13L240.28-13Q240.28-10.25 241.33-8.08 242.38-5.9 244.2-4.65 246.03-3.4 248.28-3.4ZM275.08 0.6L275.08 0.6Q272.13 0.6 269.75-0.15 267.38-0.9 265.83-2.1L265.83-2.1 267.73-5.85Q269.03-4.75 271-4.03 272.98-3.3 275.23-3.3L275.23-3.3Q278.03-3.3 279.45-4.23 280.88-5.15 280.88-6.6L280.88-6.6Q280.88-7.65 280.35-8.45 279.83-9.25 278.43-10.03 277.03-10.8 274.38-11.7L274.38-11.7Q270.73-12.95 268.9-14.68 267.08-16.4 267.08-19.45L267.08-19.45Q267.08-22.45 269.7-24.53 272.33-26.6 276.98-26.6L276.98-26.6Q279.48-26.6 281.43-26.08 283.38-25.55 284.93-24.75L284.93-24.75 283.68-21.05Q282.33-21.85 280.6-22.35 278.88-22.85 276.78-22.85L276.78-22.85Q274.18-22.85 272.83-21.8 271.48-20.75 271.48-19.5L271.48-19.5Q271.48-18.3 272.53-17.45 273.58-16.6 276.63-15.6L276.63-15.6Q281.58-13.95 283.53-11.95 285.48-9.95 285.48-6.95L285.48-6.95Q285.48-3.45 282.65-1.43 279.83 0.6 275.08 0.6ZM316.17 0.4L316.17 0.4Q313.32 0.4 311.2 0.25 309.07 0.1 306.97-0.1L306.97-0.1 306.97-34.9Q309.32-35.15 311.57-35.27 313.82-35.4 316.72-35.4L316.72-35.4Q321.22-35.4 324.5-34 327.77-32.6 329.9-30.15 332.02-27.7 333.05-24.48 334.07-21.25 334.07-17.55L334.07-17.55Q334.07-13.9 333.02-10.65 331.97-7.4 329.8-4.93 327.62-2.45 324.25-1.03 320.87 0.4 316.17 0.4ZM316.32-3.75L316.32-3.75Q320.82-3.75 323.67-5.5 326.52-7.25 327.87-10.38 329.22-13.5 329.22-17.55L329.22-17.55Q329.22-21.15 327.87-24.3 326.52-27.45 323.72-29.38 320.92-31.3 316.57-31.3L316.57-31.3Q315.12-31.3 313.92-31.23 312.72-31.15 311.72-31.05L311.72-31.05 311.72-4Q312.77-3.85 313.92-3.8 315.07-3.75 316.32-3.75ZM350.52 0.6L350.52 0.6Q347.27 0.6 344.62-1.05 341.97-2.7 340.39-5.73 338.82-8.75 338.82-12.85L338.82-12.85Q338.82-16.75 340.39-19.85 341.97-22.95 344.74-24.78 347.52-26.6 351.12-26.6L351.12-26.6Q353.37-26.6 355.19-25.83 357.02-25.05 358.37-23.9L358.37-23.9 358.37-26 362.47-26 362.47-6.3Q362.47-4.4 363.39-3.83 364.32-3.25 365.42-3.25L365.42-3.25 364.47 0.25Q359.67 0.25 358.67-3.65L358.67-3.65Q357.52-2.05 355.54-0.73 353.57 0.6 350.52 0.6ZM351.52-3.4L351.52-3.4Q353.42-3.4 355.12-4.33 356.82-5.25 357.97-6.65L357.97-6.65 357.97-20.6Q356.62-21.55 354.99-22.13 353.37-22.7 351.57-22.7L351.57-22.7Q349.17-22.7 347.34-21.48 345.52-20.25 344.47-18.07 343.42-15.9 343.42-13L343.42-13Q343.42-10.2 344.47-8.03 345.52-5.85 347.37-4.63 349.22-3.4 351.52-3.4ZM380.52 0.6L380.52 0.6Q376.77 0.6 374.59-1.88 372.42-4.35 372.42-8.95L372.42-8.95 372.42-21.15 367.92-21.15 367.92-25.05 372.52-25.05 373.47-33.25 376.92-33.25 376.92-25.05 384.12-25.05 384.12-21.15 376.92-21.15 376.92-8.6Q376.92-5.7 378.14-4.55 379.37-3.4 381.07-3.4L381.07-3.4Q382.32-3.4 383.44-3.8 384.57-4.2 385.52-4.75L385.52-4.75 386.77-1.15Q385.77-0.55 384.07 0.03 382.37 0.6 380.52 0.6ZM400.21 0.6L400.21 0.6Q396.96 0.6 394.31-1.05 391.66-2.7 390.09-5.73 388.51-8.75 388.51-12.85L388.51-12.85Q388.51-16.75 390.09-19.85 391.66-22.95 394.44-24.78 397.21-26.6 400.81-26.6L400.81-26.6Q403.06-26.6 404.89-25.83 406.71-25.05 408.06-23.9L408.06-23.9 408.06-26 412.16-26 412.16-6.3Q412.16-4.4 413.09-3.83 414.01-3.25 415.11-3.25L415.11-3.25 414.16 0.25Q409.36 0.25 408.36-3.65L408.36-3.65Q407.21-2.05 405.24-0.73 403.26 0.6 400.21 0.6ZM401.21-3.4L401.21-3.4Q403.11-3.4 404.81-4.33 406.51-5.25 407.66-6.65L407.66-6.65 407.66-20.6Q406.31-21.55 404.69-22.13 403.06-22.7 401.26-22.7L401.26-22.7Q398.86-22.7 397.04-21.48 395.21-20.25 394.16-18.07 393.11-15.9 393.11-13L393.11-13Q393.11-10.2 394.16-8.03 395.21-5.85 397.06-4.63 398.91-3.4 401.21-3.4ZM446.71 0.4L446.71 0.4Q443.66 0.4 440.93 0.25 438.21 0.1 436.61-0.1L436.61-0.1 436.61-34.9Q438.36-35.1 440.96-35.25 443.56-35.4 446.91-35.4L446.91-35.4Q453.31-35.4 456.76-32.98 460.21-30.55 460.21-26.4L460.21-26.4Q460.21-23.65 458.73-21.73 457.26-19.8 454.46-18.55L454.46-18.55Q457.86-17.35 459.61-15.23 461.36-13.1 461.36-10L461.36-10Q461.36-5.25 457.61-2.43 453.86 0.4 446.71 0.4ZM441.36-31.3L441.36-19.9 446.86-19.9Q450.81-19.9 453.13-21.55 455.46-23.2 455.46-25.8L455.46-25.8Q455.46-28.6 453.16-30.08 450.86-31.55 446.86-31.55L446.86-31.55Q445.21-31.55 443.86-31.48 442.51-31.4 441.36-31.3L441.36-31.3ZM447.06-3.55L447.06-3.55Q451.51-3.55 454.01-5.15 456.51-6.75 456.51-9.8L456.51-9.8Q456.51-12.8 454.06-14.5 451.61-16.2 447.06-16.2L447.06-16.2 441.36-16.2 441.36-3.85Q444.01-3.55 447.06-3.55ZM477.56 0.6L477.56 0.6Q474.31 0.6 471.66-1.05 469.01-2.7 467.43-5.73 465.86-8.75 465.86-12.85L465.86-12.85Q465.86-16.75 467.43-19.85 469.01-22.95 471.78-24.78 474.56-26.6 478.16-26.6L478.16-26.6Q480.41-26.6 482.23-25.83 484.06-25.05 485.41-23.9L485.41-23.9 485.41-26 489.51-26 489.51-6.3Q489.51-4.4 490.43-3.83 491.36-3.25 492.46-3.25L492.46-3.25 491.51 0.25Q486.71 0.25 485.71-3.65L485.71-3.65Q484.56-2.05 482.58-0.73 480.61 0.6 477.56 0.6ZM478.56-3.4L478.56-3.4Q480.46-3.4 482.16-4.33 483.86-5.25 485.01-6.65L485.01-6.65 485.01-20.6Q483.66-21.55 482.03-22.13 480.41-22.7 478.61-22.7L478.61-22.7Q476.21-22.7 474.38-21.48 472.56-20.25 471.51-18.07 470.46-15.9 470.46-13L470.46-13Q470.46-10.2 471.51-8.03 472.56-5.85 474.41-4.63 476.26-3.4 478.56-3.4ZM505.45 0.6L505.45 0.6Q502.5 0.6 500.13-0.15 497.75-0.9 496.2-2.1L496.2-2.1 498.1-5.85Q499.4-4.75 501.38-4.03 503.35-3.3 505.6-3.3L505.6-3.3Q508.4-3.3 509.83-4.23 511.25-5.15 511.25-6.6L511.25-6.6Q511.25-7.65 510.73-8.45 510.2-9.25 508.8-10.03 507.4-10.8 504.75-11.7L504.75-11.7Q501.1-12.95 499.28-14.68 497.45-16.4 497.45-19.45L497.45-19.45Q497.45-22.45 500.08-24.53 502.7-26.6 507.35-26.6L507.35-26.6Q509.85-26.6 511.8-26.08 513.75-25.55 515.3-24.75L515.3-24.75 514.05-21.05Q512.7-21.85 510.98-22.35 509.25-22.85 507.15-22.85L507.15-22.85Q504.55-22.85 503.2-21.8 501.85-20.75 501.85-19.5L501.85-19.5Q501.85-18.3 502.9-17.45 503.95-16.6 507-15.6L507-15.6Q511.95-13.95 513.9-11.95 515.85-9.95 515.85-6.95L515.85-6.95Q515.85-3.45 513.03-1.43 510.2 0.6 505.45 0.6ZM532.25 0.6L532.25 0.6Q526.65 0.6 523.38-2.98 520.1-6.55 520.1-13L520.1-13Q520.1-16.9 521.58-19.98 523.05-23.05 525.7-24.83 528.35-26.6 531.85-26.6L531.85-26.6Q535.6-26.6 538.08-24.98 540.55-23.35 541.8-20.6 543.05-17.85 543.05-14.55L543.05-14.55Q543.05-12.8 542.9-11.15L542.9-11.15 524.7-11.15Q525.15-7.5 527.25-5.45 529.35-3.4 532.8-3.4L532.8-3.4Q535.05-3.4 536.85-3.88 538.65-4.35 540.3-5.1L540.3-5.1 541.35-1.25Q539.55-0.45 537.3 0.08 535.05 0.6 532.25 0.6ZM524.65-14.8L524.65-14.8 538.9-14.8Q538.9-18.6 537-20.65 535.1-22.7 531.75-22.7L531.75-22.7Q528.85-22.7 526.95-20.68 525.05-18.65 524.65-14.8Z" opacity="1" transform="matrix(1,0,0,1,0,0)" fill="#000000" class="wordmark-text-0" data-fill-palette-color="primary" id="text-0"></path></svg></g></svg></g><g transform="matrix(1,0,0,1,101.16385655842578,34.00364134286349)"><svg viewBox="0 0 193.19228688314843 17.000775316315206" height="17.000775316315206" width="193.19228688314843"><g transform="matrix(1,0,0,1,0,0)"><svg width="193.19228688314843" viewBox="3.49 -35.5 517.08 45.51" height="17.000775316315206" data-palette-color="#d94e28"><path d="M23.19-8.11L23.19-8.11Q23.19-6.32 22.52-4.76 21.85-3.2 20.68-2.03 19.51-0.85 17.94-0.18 16.38 0.49 14.6 0.49L14.6 0.49 12.11 0.49Q10.33 0.49 8.75-0.18 7.18-0.85 6.01-2.03 4.83-3.2 4.16-4.76 3.49-6.32 3.49-8.11L3.49-8.11 3.49-26.9Q3.49-28.69 4.16-30.25 4.83-31.81 6.01-32.98 7.18-34.16 8.75-34.83 10.33-35.5 12.11-35.5L12.11-35.5 14.6-35.5Q16.38-35.5 17.94-34.83 19.51-34.16 20.68-32.98 21.85-31.81 22.52-30.25 23.19-28.69 23.19-26.9L23.19-26.9 23.19-25.49 20.04-25 20.04-26.9Q20.04-28.08 19.6-29.09 19.17-30.1 18.41-30.86 17.65-31.62 16.64-32.06 15.63-32.5 14.45-32.5L14.45-32.5 12.26-32.5Q11.08-32.5 10.07-32.06 9.06-31.62 8.29-30.86 7.52-30.1 7.08-29.09 6.64-28.08 6.64-26.9L6.64-26.9 6.64-8.11Q6.64-6.93 7.08-5.92 7.52-4.91 8.29-4.14 9.06-3.37 10.07-2.93 11.08-2.49 12.26-2.49L12.26-2.49 14.45-2.49Q15.63-2.49 16.64-2.93 17.65-3.37 18.41-4.14 19.17-4.91 19.6-5.92 20.04-6.93 20.04-8.11L20.04-8.11 20.04-10.01 23.19-9.5 23.19-8.11ZM45.9 0L42.89 0 42.89-18.31Q42.89-19.21 42.55-20.01 42.21-20.8 41.62-21.39 41.04-21.97 40.24-22.31 39.45-22.66 38.55-22.66L38.55-22.66 36.55-22.66Q35.64-22.66 34.85-22.31 34.06-21.97 33.47-21.39 32.88-20.8 32.54-20.01 32.2-19.21 32.2-18.31L32.2-18.31 32.2 0 29.2 0 29.2-35.01 32.2-35.01 32.2-22.9Q33.23-24.12 34.67-24.8 36.11-25.49 37.79-25.49L37.79-25.49 38.55-25.49Q40.06-25.49 41.4-24.91 42.75-24.34 43.75-23.34 44.75-22.34 45.32-21 45.9-19.65 45.9-18.14L45.9-18.14 45.9 0ZM68.6-6.86L68.6-6.86Q68.6-5.35 68.02-4 67.45-2.66 66.45-1.66 65.45-0.66 64.11-0.09 62.76 0.49 61.25 0.49L61.25 0.49 59.25 0.49Q57.73 0.49 56.39-0.09 55.05-0.66 54.05-1.66 53.05-2.66 52.47-4 51.9-5.35 51.9-6.86L51.9-6.86 51.9-18.14Q51.9-19.65 52.47-21 53.05-22.34 54.05-23.34 55.05-24.34 56.39-24.91 57.73-25.49 59.25-25.49L59.25-25.49 61.25-25.49Q62.76-25.49 64.11-24.91 65.45-24.34 66.45-23.34 67.45-22.34 68.02-21 68.6-19.65 68.6-18.14L68.6-18.14 68.6-6.86ZM65.6-6.69L65.6-18.31Q65.6-19.21 65.25-20.01 64.91-20.8 64.33-21.39 63.74-21.97 62.95-22.31 62.15-22.66 61.25-22.66L61.25-22.66 59.25-22.66Q58.34-22.66 57.55-22.31 56.76-21.97 56.17-21.39 55.59-20.8 55.24-20.01 54.9-19.21 54.9-18.31L54.9-18.31 54.9-6.69Q54.9-5.79 55.24-4.99 55.59-4.2 56.17-3.61 56.76-3.03 57.55-2.69 58.34-2.34 59.25-2.34L59.25-2.34 61.25-2.34Q62.15-2.34 62.95-2.69 63.74-3.03 64.33-3.61 64.91-4.2 65.25-4.99 65.6-5.79 65.6-6.69L65.6-6.69ZM91.3-6.86L91.3-6.86Q91.3-5.35 90.73-4 90.15-2.66 89.15-1.66 88.15-0.66 86.81-0.09 85.47 0.49 83.95 0.49L83.95 0.49 81.95 0.49Q80.44 0.49 79.09-0.09 77.75-0.66 76.75-1.66 75.75-2.66 75.18-4 74.6-5.35 74.6-6.86L74.6-6.86 74.6-18.14Q74.6-19.65 75.18-21 75.75-22.34 76.75-23.34 77.75-24.34 79.09-24.91 80.44-25.49 81.95-25.49L81.95-25.49 83.95-25.49Q85.47-25.49 86.81-24.91 88.15-24.34 89.15-23.34 90.15-22.34 90.73-21 91.3-19.65 91.3-18.14L91.3-18.14 91.3-6.86ZM88.3-6.69L88.3-18.31Q88.3-19.21 87.96-20.01 87.61-20.8 87.03-21.39 86.44-21.97 85.65-22.31 84.86-22.66 83.95-22.66L83.95-22.66 81.95-22.66Q81.05-22.66 80.25-22.31 79.46-21.97 78.87-21.39 78.29-20.8 77.95-20.01 77.6-19.21 77.6-18.31L77.6-18.31 77.6-6.69Q77.6-5.79 77.95-4.99 78.29-4.2 78.87-3.61 79.46-3.03 80.25-2.69 81.05-2.34 81.95-2.34L81.95-2.34 83.95-2.34Q84.86-2.34 85.65-2.69 86.44-3.03 87.03-3.61 87.61-4.2 87.96-4.99 88.3-5.79 88.3-6.69L88.3-6.69ZM114.49-6.35L114.49-6.35Q114.49-4.83 113.88-3.58 113.27-2.32 112.22-1.42 111.17-0.51 109.79-0.01 108.41 0.49 106.9 0.49L106.9 0.49 104.9 0.49Q103.38 0.49 102-0.09 100.62-0.66 99.59-1.66 98.55-2.66 97.93-4 97.3-5.35 97.3-6.86L97.3-6.86 97.3-7.86 100.31-8.35 100.31-6.69Q100.31-5.79 100.69-4.99 101.06-4.2 101.7-3.61 102.33-3.03 103.16-2.69 103.99-2.34 104.9-2.34L104.9-2.34 106.9-2.34Q107.8-2.34 108.63-2.61 109.46-2.88 110.11-3.38 110.76-3.88 111.14-4.59 111.51-5.3 111.51-6.2L111.51-6.2Q111.51-7.54 110.93-8.4 110.34-9.25 109.38-9.83 108.41-10.4 107.18-10.78 105.95-11.16 104.65-11.54 103.36-11.91 102.13-12.4 100.89-12.89 99.93-13.68 98.96-14.48 98.38-15.67 97.79-16.87 97.79-18.65L97.79-18.65Q97.79-20.17 98.38-21.42 98.96-22.68 99.97-23.58 100.97-24.49 102.3-24.99 103.63-25.49 105.14-25.49L105.14-25.49 106.9-25.49Q108.41-25.49 109.76-24.91 111.1-24.34 112.1-23.34 113.1-22.34 113.67-21 114.25-19.65 114.25-18.14L114.25-18.14 114.25-18.04 111.24-17.55 111.24-18.31Q111.24-19.21 110.9-20.01 110.56-20.8 109.98-21.39 109.39-21.97 108.6-22.31 107.8-22.66 106.9-22.66L106.9-22.66 105.14-22.66Q104.24-22.66 103.44-22.39 102.65-22.12 102.07-21.62 101.48-21.12 101.14-20.41 100.8-19.7 100.8-18.8L100.8-18.8Q100.8-17.5 101.38-16.69 101.97-15.87 102.93-15.31 103.9-14.75 105.13-14.37 106.36-13.99 107.64-13.59 108.93-13.18 110.16-12.67 111.39-12.16 112.36-11.35 113.32-10.55 113.91-9.34 114.49-8.13 114.49-6.35ZM136.95-6.86L136.95-6.86Q136.95-5.35 136.38-4 135.8-2.66 134.8-1.66 133.8-0.66 132.46-0.09 131.12 0.49 129.6 0.49L129.6 0.49 127.6 0.49Q126.09 0.49 124.74-0.09 123.4-0.66 122.4-1.66 121.4-2.66 120.82-4 120.25-5.35 120.25-6.86L120.25-6.86 120.25-18.14Q120.25-19.65 120.82-21 121.4-22.34 122.4-23.34 123.4-24.34 124.74-24.91 126.09-25.49 127.6-25.49L127.6-25.49 129.6-25.49Q131.12-25.49 132.46-24.91 133.8-24.34 134.8-23.34 135.8-22.34 136.38-21 136.95-19.65 136.95-18.14L136.95-18.14 136.95-12.26 123.25-12.26 123.25-6.69Q123.25-5.79 123.6-4.99 123.94-4.2 124.52-3.61 125.11-3.03 125.9-2.69 126.7-2.34 127.6-2.34L127.6-2.34 129.6-2.34Q130.51-2.34 131.3-2.69 132.09-3.03 132.68-3.61 133.26-4.2 133.61-4.99 133.95-5.79 133.95-6.69L133.95-6.69 133.95-8.35 136.95-7.86 136.95-6.86ZM133.95-14.6L133.95-18.31Q133.95-19.21 133.61-20.01 133.26-20.8 132.68-21.39 132.09-21.97 131.3-22.31 130.51-22.66 129.6-22.66L129.6-22.66 127.6-22.66Q126.7-22.66 125.9-22.31 125.11-21.97 124.52-21.39 123.94-20.8 123.6-20.01 123.25-19.21 123.25-18.31L123.25-18.31 123.25-14.6 133.95-14.6ZM183.84-25L175.5 0 173.86 0 168-18.85 167.9-20.14 167.8-18.85 161.95 0 160.29 0 151.94-25 154.99-25 160.94-6.1 161.04-4.81 161.14-6.1 167-25 168.81-25 174.64-6.1 174.74-4.81 174.84-6.1 180.79-25 183.84-25ZM204.06 0L201.05 0 201.05-18.31Q201.05-19.21 200.71-20.01 200.37-20.8 199.78-21.39 199.2-21.97 198.41-22.31 197.61-22.66 196.71-22.66L196.71-22.66 194.71-22.66Q193.8-22.66 193.01-22.31 192.22-21.97 191.63-21.39 191.04-20.8 190.7-20.01 190.36-19.21 190.36-18.31L190.36-18.31 190.36 0 187.36 0 187.36-35.01 190.36-35.01 190.36-22.9Q191.39-24.12 192.83-24.8 194.27-25.49 195.95-25.49L195.95-25.49 196.71-25.49Q198.22-25.49 199.56-24.91 200.91-24.34 201.91-23.34 202.91-22.34 203.48-21 204.06-19.65 204.06-18.14L204.06-18.14 204.06 0ZM226.76 0L225.76 0 224.1-2.49Q223.07-1.15 221.54-0.33 220 0.49 218.17 0.49L218.17 0.49 217.41 0.49Q215.9 0.49 214.55-0.09 213.21-0.66 212.21-1.66 211.21-2.66 210.63-4 210.06-5.35 210.06-6.86L210.06-6.86 210.06-7.1Q210.06-8.62 210.63-9.96 211.21-11.3 212.21-12.3 213.21-13.31 214.55-13.88 215.9-14.45 217.41-14.45L217.41-14.45 223.76-14.45 223.76-18.31Q223.76-19.21 223.42-20.01 223.07-20.8 222.49-21.39 221.9-21.97 221.11-22.31 220.31-22.66 219.41-22.66L219.41-22.66 217.65-22.66Q216.75-22.66 215.96-22.31 215.16-21.97 214.58-21.39 213.99-20.8 213.65-20.01 213.31-19.21 213.31-18.31L213.31-18.31 213.31-17.41 210.3-17.9 210.3-18.14Q210.3-19.65 210.88-21 211.45-22.34 212.45-23.34 213.45-24.34 214.8-24.91 216.14-25.49 217.65-25.49L217.65-25.49 219.41-25.49Q220.92-25.49 222.27-24.91 223.61-24.34 224.61-23.34 225.61-22.34 226.19-21 226.76-19.65 226.76-18.14L226.76-18.14 226.76 0ZM223.76-6.69L223.76-12.11 217.41-12.11Q216.51-12.11 215.71-11.77 214.92-11.43 214.33-10.83 213.75-10.23 213.41-9.44 213.06-8.64 213.06-7.74L213.06-7.74 213.06-6.69Q213.06-5.79 213.41-4.99 213.75-4.2 214.33-3.61 214.92-3.03 215.71-2.69 216.51-2.34 217.41-2.34L217.41-2.34 219.41-2.34Q220.31-2.34 221.11-2.69 221.9-3.03 222.49-3.61 223.07-4.2 223.42-4.99 223.76-5.79 223.76-6.69L223.76-6.69ZM244.6 0L241.87 0Q240.5 0 239.29-0.51 238.09-1.03 237.19-1.93 236.3-2.83 235.78-4.03 235.25-5.22 235.25-6.59L235.25-6.59 235.25-22.14 230.76-22.14 230.76-25 235.25-25 235.25-31.01 238.26-31.49 238.26-25 244.6-25 244.6-22.14 238.26-22.14 238.26-6.45Q238.26-5.69 238.54-5.04 238.82-4.39 239.31-3.91 239.79-3.42 240.45-3.14 241.11-2.86 241.87-2.86L241.87-2.86 244.6-2.86 244.6 0ZM278.31-25L265.67 10.01 262.76 10.01 267.21-2.15 259.1-25 262.1-25 268.62-6.05 268.72-4.76 268.82-6.05 275.31-25 278.31-25ZM298.01-6.86L298.01-6.86Q298.01-5.35 297.44-4 296.87-2.66 295.87-1.66 294.86-0.66 293.52-0.09 292.18 0.49 290.67 0.49L290.67 0.49 288.66 0.49Q287.15 0.49 285.81-0.09 284.46-0.66 283.46-1.66 282.46-2.66 281.89-4 281.32-5.35 281.32-6.86L281.32-6.86 281.32-18.14Q281.32-19.65 281.89-21 282.46-22.34 283.46-23.34 284.46-24.34 285.81-24.91 287.15-25.49 288.66-25.49L288.66-25.49 290.67-25.49Q292.18-25.49 293.52-24.91 294.86-24.34 295.87-23.34 296.87-22.34 297.44-21 298.01-19.65 298.01-18.14L298.01-18.14 298.01-6.86ZM295.01-6.69L295.01-18.31Q295.01-19.21 294.67-20.01 294.33-20.8 293.74-21.39 293.16-21.97 292.36-22.31 291.57-22.66 290.67-22.66L290.67-22.66 288.66-22.66Q287.76-22.66 286.97-22.31 286.17-21.97 285.59-21.39 285-20.8 284.66-20.01 284.32-19.21 284.32-18.31L284.32-18.31 284.32-6.69Q284.32-5.79 284.66-4.99 285-4.2 285.59-3.61 286.17-3.03 286.97-2.69 287.76-2.34 288.66-2.34L288.66-2.34 290.67-2.34Q291.57-2.34 292.36-2.69 293.16-3.03 293.74-3.61 294.33-4.2 294.67-4.99 295.01-5.79 295.01-6.69L295.01-6.69ZM320.72 0L319.72 0 318.06-2.54Q317.03-1.15 315.49-0.33 313.95 0.49 312.12 0.49L312.12 0.49 311.37 0.49Q309.85 0.49 308.51-0.09 307.17-0.66 306.17-1.66 305.17-2.66 304.59-4 304.02-5.35 304.02-6.86L304.02-6.86 304.02-25 307.02-25 307.02-6.69Q307.02-5.79 307.36-4.99 307.7-4.2 308.29-3.61 308.88-3.03 309.67-2.69 310.46-2.34 311.37-2.34L311.37-2.34 313.37-2.34Q314.27-2.34 315.07-2.69 315.86-3.03 316.44-3.61 317.03-4.2 317.37-4.99 317.71-5.79 317.71-6.69L317.71-6.69 317.71-25 320.72-25 320.72 0ZM348.57-22.14L345.57-22.14Q344.66-22.14 343.87-21.8 343.08-21.46 342.49-20.87 341.9-20.29 341.56-19.49 341.22-18.7 341.22-17.8L341.22-17.8 341.22 0 338.22 0 338.22-25 339.22-25 340.85-22.46Q341.88-23.85 343.43-24.67 344.98-25.49 346.81-25.49L346.81-25.49 348.57-25.49 348.57-22.14ZM369.27-6.86L369.27-6.86Q369.27-5.35 368.7-4 368.12-2.66 367.12-1.66 366.12-0.66 364.78-0.09 363.43 0.49 361.92 0.49L361.92 0.49 359.92 0.49Q358.4 0.49 357.06-0.09 355.72-0.66 354.72-1.66 353.72-2.66 353.14-4 352.57-5.35 352.57-6.86L352.57-6.86 352.57-18.14Q352.57-19.65 353.14-21 353.72-22.34 354.72-23.34 355.72-24.34 357.06-24.91 358.4-25.49 359.92-25.49L359.92-25.49 361.92-25.49Q363.43-25.49 364.78-24.91 366.12-24.34 367.12-23.34 368.12-22.34 368.7-21 369.27-19.65 369.27-18.14L369.27-18.14 369.27-12.26 355.57-12.26 355.57-6.69Q355.57-5.79 355.91-4.99 356.26-4.2 356.84-3.61 357.43-3.03 358.22-2.69 359.02-2.34 359.92-2.34L359.92-2.34 361.92-2.34Q362.82-2.34 363.62-2.69 364.41-3.03 365-3.61 365.58-4.2 365.92-4.99 366.27-5.79 366.27-6.69L366.27-6.69 366.27-8.35 369.27-7.86 369.27-6.86ZM366.27-14.6L366.27-18.31Q366.27-19.21 365.92-20.01 365.58-20.8 365-21.39 364.41-21.97 363.62-22.31 362.82-22.66 361.92-22.66L361.92-22.66 359.92-22.66Q359.02-22.66 358.22-22.31 357.43-21.97 356.84-21.39 356.26-20.8 355.91-20.01 355.57-19.21 355.57-18.31L355.57-18.31 355.57-14.6 366.27-14.6ZM391.97 0L390.97 0 389.31-2.49Q388.29-1.15 386.75-0.33 385.21 0.49 383.38 0.49L383.38 0.49 382.62 0.49Q381.11 0.49 379.76-0.09 378.42-0.66 377.42-1.66 376.42-2.66 375.85-4 375.27-5.35 375.27-6.86L375.27-6.86 375.27-7.1Q375.27-8.62 375.85-9.96 376.42-11.3 377.42-12.3 378.42-13.31 379.76-13.88 381.11-14.45 382.62-14.45L382.62-14.45 388.97-14.45 388.97-18.31Q388.97-19.21 388.63-20.01 388.29-20.8 387.7-21.39 387.11-21.97 386.32-22.31 385.53-22.66 384.62-22.66L384.62-22.66 382.87-22.66Q381.96-22.66 381.17-22.31 380.37-21.97 379.79-21.39 379.2-20.8 378.86-20.01 378.52-19.21 378.52-18.31L378.52-18.31 378.52-17.41 375.52-17.9 375.52-18.14Q375.52-19.65 376.09-21 376.66-22.34 377.66-23.34 378.67-24.34 380.01-24.91 381.35-25.49 382.87-25.49L382.87-25.49 384.62-25.49Q386.14-25.49 387.48-24.91 388.82-24.34 389.82-23.34 390.82-22.34 391.4-21 391.97-19.65 391.97-18.14L391.97-18.14 391.97 0ZM388.97-6.69L388.97-12.11 382.62-12.11Q381.72-12.11 380.92-11.77 380.13-11.43 379.54-10.83 378.96-10.23 378.62-9.44 378.28-8.64 378.28-7.74L378.28-7.74 378.28-6.69Q378.28-5.79 378.62-4.99 378.96-4.2 379.54-3.61 380.13-3.03 380.92-2.69 381.72-2.34 382.62-2.34L382.62-2.34 384.62-2.34Q385.53-2.34 386.32-2.69 387.11-3.03 387.7-3.61 388.29-4.2 388.63-4.99 388.97-5.79 388.97-6.69L388.97-6.69ZM414.67 0L413.67 0 412.01-2.54Q410.99-1.15 409.45-0.33 407.91 0.49 406.08 0.49L406.08 0.49 405.32 0.49Q403.81 0.49 402.47-0.09 401.12-0.66 400.12-1.66 399.12-2.66 398.55-4 397.97-5.35 397.97-6.86L397.97-6.86 397.97-18.14Q397.97-19.65 398.55-21 399.12-22.34 400.12-23.34 401.12-24.34 402.47-24.91 403.81-25.49 405.32-25.49L405.32-25.49 406.08-25.49Q407.77-25.49 409.21-24.8 410.65-24.12 411.67-22.9L411.67-22.9 411.67-35.01 414.67-35.01 414.67 0ZM411.67-6.69L411.67-18.31Q411.67-19.21 411.33-20.01 410.99-20.8 410.4-21.39 409.82-21.97 409.02-22.31 408.23-22.66 407.33-22.66L407.33-22.66 405.32-22.66Q404.42-22.66 403.63-22.31 402.83-21.97 402.25-21.39 401.66-20.8 401.32-20.01 400.98-19.21 400.98-18.31L400.98-18.31 400.98-6.69Q400.98-5.79 401.32-4.99 401.66-4.2 402.25-3.61 402.83-3.03 403.63-2.69 404.42-2.34 405.32-2.34L405.32-2.34 407.33-2.34Q408.23-2.34 409.02-2.69 409.82-3.03 410.4-3.61 410.99-4.2 411.33-4.99 411.67-5.79 411.67-6.69L411.67-6.69ZM448.87 0L445.87 0 445.87-18.31Q445.87-19.21 445.53-20.01 445.19-20.8 444.6-21.39 444.01-21.97 443.22-22.31 442.43-22.66 441.52-22.66L441.52-22.66 439.52-22.66Q438.62-22.66 437.83-22.31 437.03-21.97 436.45-21.39 435.86-20.8 435.52-20.01 435.18-19.21 435.18-18.31L435.18-18.31 435.18 0 432.17 0 432.17-25 433.18-25 434.81-22.46Q435.84-23.85 437.39-24.67 438.94-25.49 440.77-25.49L440.77-25.49 441.52-25.49Q443.04-25.49 444.38-24.91 445.72-24.34 446.72-23.34 447.73-22.34 448.3-21 448.87-19.65 448.87-18.14L448.87-18.14 448.87 0ZM471.58-6.86L471.58-6.86Q471.58-5.35 471-4 470.43-2.66 469.43-1.66 468.43-0.66 467.08-0.09 465.74 0.49 464.23 0.49L464.23 0.49 462.23 0.49Q460.71 0.49 459.37-0.09 458.03-0.66 457.03-1.66 456.02-2.66 455.45-4 454.88-5.35 454.88-6.86L454.88-6.86 454.88-18.14Q454.88-19.65 455.45-21 456.02-22.34 457.03-23.34 458.03-24.34 459.37-24.91 460.71-25.49 462.23-25.49L462.23-25.49 464.23-25.49Q465.74-25.49 467.08-24.91 468.43-24.34 469.43-23.34 470.43-22.34 471-21 471.58-19.65 471.58-18.14L471.58-18.14 471.58-12.26 457.88-12.26 457.88-6.69Q457.88-5.79 458.22-4.99 458.56-4.2 459.15-3.61 459.74-3.03 460.53-2.69 461.32-2.34 462.23-2.34L462.23-2.34 464.23-2.34Q465.13-2.34 465.92-2.69 466.72-3.03 467.3-3.61 467.89-4.2 468.23-4.99 468.57-5.79 468.57-6.69L468.57-6.69 468.57-8.35 471.58-7.86 471.58-6.86ZM468.57-14.6L468.57-18.31Q468.57-19.21 468.23-20.01 467.89-20.8 467.3-21.39 466.72-21.97 465.92-22.31 465.13-22.66 464.23-22.66L464.23-22.66 462.23-22.66Q461.32-22.66 460.53-22.31 459.74-21.97 459.15-21.39 458.56-20.8 458.22-20.01 457.88-19.21 457.88-18.31L457.88-18.31 457.88-14.6 468.57-14.6ZM493.77 0L490.52 0 485.17-9.59 479.83 0 476.58 0 483.59-12.5 476.58-25 479.83-25 485.17-15.41 490.52-25 493.77-25 486.78-12.5 493.77 0ZM510.61 0L507.87 0Q506.51 0 505.3-0.51 504.09-1.03 503.2-1.93 502.31-2.83 501.78-4.03 501.26-5.22 501.26-6.59L501.26-6.59 501.26-22.14 496.77-22.14 496.77-25 501.26-25 501.26-31.01 504.26-31.49 504.26-25 510.61-25 510.61-22.14 504.26-22.14 504.26-6.45Q504.26-5.69 504.54-5.04 504.82-4.39 505.31-3.91 505.8-3.42 506.46-3.14 507.12-2.86 507.87-2.86L507.87-2.86 510.61-2.86 510.61 0ZM520.57-35.01L519.22-10.6 517.47-10.6 516.12-35.01 520.57-35.01ZM520.23 0L516.47 0 516.47-3.76 520.23-3.76 520.23 0Z" opacity="1" transform="matrix(1,0,0,1,0,0)" fill="#000000" class="slogan-text-1" data-fill-palette-color="secondary" id="text-1"></path></svg></g></svg></g></svg></g></svg></g><g transform="matrix(1,0,0,1,136.06274267672086,0)"><svg viewBox="0 0 123.39451464655826 123.39451464655826" height="123.39451464655826" width="123.39451464655826"><g><svg></svg></g><g id="icon-0"><svg viewBox="0 0 123.39451464655826 123.39451464655826" height="123.39451464655826" width="123.39451464655826"><g><path d="M0 61.697c0-34.074 27.623-61.697 61.697-61.697 34.074 0 61.697 27.623 61.698 61.697 0 34.074-27.623 61.697-61.698 61.698-34.074 0-61.697-27.623-61.697-61.698zM61.697 120.914c32.704 0 59.216-26.512 59.217-59.217 0-32.704-26.512-59.216-59.217-59.216-32.704 0-59.216 26.512-59.216 59.216 0 32.704 26.512 59.216 59.216 59.217z" data-fill-palette-color="accent" fill="#000000" stroke="transparent"></path><ellipse rx="61.08028475004634" ry="61.08028475004634" cx="61.69725732327913" cy="61.69725732327913" fill="#000000" stroke="transparent" stroke-width="0" fill-opacity="1" data-fill-palette-color="accent"></ellipse></g><g transform="matrix(1,0,0,1,24.545896706166296,29.189816783305403)"><svg viewBox="0 0 74.30272123422567 65.01488107994746" height="65.01488107994746" width="74.30272123422567"><g><svg xmlns="http://www.w3.org/2000/svg" xmlns:xlink="http://www.w3.org/1999/xlink" version="1.1" x="0" y="0" viewBox="0 0 100 87.5" style="enable-background:new 0 0 100 87.5;" xml:space="preserve" id="dxe-0" width="74.30272123422567" height="65.01488107994746" class="icon-dxe-0" data-fill-palette-color="quaternary"><path d="M50 12.5S37.5 0 0 0V75C37.891 75 50 87.5 50 87.5S62.109 75 100 75V0C62.5 0 50 12.5 50 12.5M12.5 12.5C28.388 13.83 38.135 17.505 43.75 20.483V70.825C38.135 67.859 28.388 64.184 12.5 62.842zM87.5 62.842C71.606 64.185 61.859 67.86 56.25 70.825V20.483C61.859 17.504 71.606 13.83 87.5 12.5z" fill="#ffffff" data-fill-palette-color="quaternary"></path></svg></g></svg></g></svg></g></svg></g><g></g></svg></g></svg></g><defs></defs></svg><rect width="395.52" height="187.3875236474018" fill="none" stroke="none" visibility="hidden"></rect></g></svg></g></svg>